<?xml version="1.0" standalone="no"?>
<!DOCTYPE svg PUBLIC "-//W3C//DTD SVG 20010904//EN"
 "http://www.w3.org/TR/2001/REC-SVG-20010904/DTD/svg10.dtd">
<svg version="1.0" xmlns="http://www.w3.org/2000/svg"
 width="512.000000pt" height="512.000000pt" viewBox="0 0 512.000000 512.000000"
 preserveAspectRatio="xMidYMid meet">
<metadata>
Created by potrace 1.14, written by Peter Selinger 2001-2017
</metadata>
<g transform="translate(0.000000,512.000000) scale(0.100000,-0.100000)"
fill="#000000" stroke="none">
<path d="M2390 5017 c-3 -2 -41 -7 -85 -10 -76 -6 -178 -21 -213 -31 -10 -3
-34 -7 -56 -11 -21 -3 -41 -7 -45 -9 -3 -2 -23 -7 -44 -10 -21 -3 -47 -11 -58
-16 -10 -6 -19 -8 -19 -6 0 5 -105 -29 -160 -51 -8 -4 -17 -7 -20 -7 -7 -2
-68 -26 -110 -43 -19 -8 -83 -39 -141 -68 -334 -167 -617 -403 -857 -713 -219
-285 -397 -681 -456 -1017 -3 -16 -10 -55 -16 -85 -37 -207 -34 -600 6 -810
25 -130 34 -171 41 -195 4 -11 8 -24 9 -30 1 -5 8 -30 15 -55 16 -56 15 -52
22 -70 3 -8 13 -37 22 -65 42 -128 125 -302 216 -450 27 -44 55 -89 62 -100 6
-11 14 -22 17 -25 3 -3 30 -39 61 -80 180 -239 426 -463 684 -620 89 -55 304
-162 373 -186 28 -10 52 -21 52 -24 0 -3 -335 -5 -745 -5 -665 1 -745 -1 -746
-15 -1 -8 -1 -40 -2 -70 l-1 -55 1260 -1 c692 -1 1291 2 1329 7 39 5 88 11
110 13 56 7 138 22 220 41 39 10 75 18 80 19 6 1 16 5 23 9 6 5 12 6 12 3 0
-3 16 2 35 10 19 8 35 12 35 9 0 -3 14 1 30 10 17 9 30 13 30 9 0 -4 6 -2 13
3 6 5 41 20 77 33 129 45 381 180 515 274 277 196 531 469 707 761 66 109 196
384 212 450 12 48 20 72 25 80 3 6 6 15 7 20 1 6 11 44 22 85 19 69 44 186 57
270 14 93 20 200 20 365 0 201 -8 301 -36 440 -5 28 -11 59 -13 71 -2 11 -12
51 -21 88 -9 37 -18 72 -19 79 -2 7 -6 19 -9 27 -3 8 -15 44 -27 80 -12 36
-25 74 -30 85 -9 22 -22 57 -25 65 -12 44 -122 260 -171 338 -19 29 -34 56
-34 61 0 5 -3 11 -7 13 -5 2 -26 30 -48 62 -22 33 -44 64 -50 70 -6 6 -26 31
-45 56 -57 73 -80 99 -175 195 -118 118 -151 148 -265 233 -52 40 -99 75 -105
79 -5 5 -48 31 -95 60 -169 103 -365 192 -545 247 -49 16 -97 31 -105 34 -8 3
-24 6 -35 7 -11 1 -30 5 -42 9 -13 4 -35 10 -50 12 -16 3 -46 9 -68 14 -22 5
-63 12 -91 15 -28 3 -61 8 -75 11 -30 6 -433 17 -439 11z m449 -151 c6 -4 36
-9 67 -12 31 -2 61 -7 67 -11 5 -3 25 -7 44 -9 19 -2 69 -13 111 -25 42 -11
82 -22 87 -23 6 -1 42 -12 80 -25 68 -23 99 -35 160 -61 17 -8 33 -14 38 -16
4 -1 10 -3 15 -4 4 -1 10 -2 15 -1 4 0 7 -4 7 -11 0 -6 3 -8 7 -5 3 4 12 -1
20 -11 9 -10 12 -11 7 -2 -7 13 -5 13 12 0 29 -23 62 -40 76 -40 7 0 24 -10
38 -23 14 -13 32 -21 39 -19 8 3 11 0 7 -7 -4 -7 0 -11 11 -11 10 0 30 -11 45
-24 14 -14 28 -23 30 -21 2 2 17 -7 32 -20 16 -14 32 -25 35 -25 3 0 18 -10
33 -23 14 -12 38 -31 53 -41 98 -72 250 -214 327 -307 21 -24 48 -57 62 -73
14 -17 23 -34 20 -38 -3 -5 -2 -7 3 -6 10 3 57 -45 61 -63 2 -8 12 -23 23 -35
10 -11 19 -26 19 -32 0 -7 7 -12 16 -12 8 0 12 -5 9 -11 -4 -5 -1 -18 7 -27
22 -25 79 -122 72 -122 -3 0 2 -7 10 -16 9 -8 16 -22 16 -30 0 -8 5 -14 11
-14 5 0 8 -4 4 -9 -3 -5 2 -16 11 -25 8 -9 12 -20 9 -26 -3 -6 1 -13 9 -16 9
-3 13 -10 10 -15 -3 -5 0 -9 6 -9 6 0 9 -4 6 -8 -3 -5 6 -30 19 -56 13 -26 24
-50 25 -54 0 -4 16 -56 36 -116 38 -119 70 -247 79 -315 3 -23 7 -46 10 -51
10 -17 19 -177 19 -360 0 -202 -6 -299 -24 -385 -6 -27 -12 -61 -14 -75 -11
-65 -38 -165 -47 -177 -9 -10 -8 -13 1 -13 9 0 9 -4 3 -13 -6 -6 -23 -50 -38
-96 -15 -46 -33 -95 -41 -109 -7 -14 -11 -29 -8 -34 3 -4 0 -8 -6 -8 -6 0 -8
-4 -5 -10 3 -5 1 -10 -5 -10 -6 0 -8 -4 -5 -10 3 -5 2 -10 -2 -10 -5 0 -10
-10 -10 -22 -1 -13 -7 -24 -13 -26 -5 -2 -10 -10 -10 -17 0 -8 -7 -20 -15 -29
-9 -8 -16 -19 -15 -23 1 -19 -20 -63 -29 -63 -6 0 -10 -3 -9 -7 3 -12 -39 -88
-56 -102 -9 -8 -16 -20 -16 -27 0 -8 -4 -14 -10 -14 -5 0 -10 -6 -10 -13 0 -7
-8 -22 -18 -33 -35 -38 -61 -81 -54 -89 4 -5 2 -5 -4 -2 -7 4 -20 -5 -30 -21
-10 -15 -22 -32 -28 -39 -6 -6 -31 -35 -56 -64 -63 -74 -241 -247 -247 -241
-6 5 -48 -43 -45 -51 1 -5 -2 -6 -7 -2 -6 3 -19 -2 -30 -12 -33 -31 -50 -43
-57 -43 -4 0 -15 -10 -25 -22 -11 -11 -19 -17 -19 -13 0 5 -9 -1 -21 -13 -11
-12 -24 -20 -29 -17 -4 3 -11 -2 -14 -11 -3 -8 -10 -12 -16 -9 -5 3 -10 1 -10
-4 0 -6 -7 -11 -16 -11 -8 0 -12 -4 -9 -10 3 -5 -3 -10 -14 -10 -12 0 -21 -5
-21 -12 0 -6 -3 -8 -7 -5 -3 4 -15 0 -25 -10 -10 -9 -18 -12 -18 -7 0 5 -4 4
-8 -2 -10 -15 -104 -65 -96 -51 4 7 -2 4 -13 -6 -11 -9 -25 -17 -31 -17 -7 0
-12 -5 -12 -12 0 -6 -3 -8 -6 -5 -4 3 -16 1 -28 -5 -11 -7 -30 -13 -41 -15
-11 -2 -21 -8 -23 -13 -2 -6 -12 -10 -22 -10 -16 0 -75 -20 -110 -38 -8 -4
-24 -8 -35 -7 -11 0 -22 -3 -25 -6 -17 -20 -289 -76 -407 -84 -29 -2 -57 -6
-62 -9 -12 -8 -476 0 -489 8 -5 3 -32 8 -61 11 -82 9 -227 42 -336 76 -55 18
-106 32 -112 32 -7 0 -13 3 -13 7 0 7 -80 35 -92 32 -5 -1 -8 3 -8 9 0 5 -4 8
-9 5 -5 -4 -11 -1 -13 4 -2 6 -13 12 -26 13 -12 0 -22 4 -22 7 0 3 -9 11 -21
18 -12 8 -18 9 -15 3 4 -7 1 -8 -8 -5 -9 3 -16 9 -16 13 0 4 -16 13 -35 21
-19 8 -35 18 -35 22 0 5 -4 6 -10 3 -9 -6 -19 0 -55 33 -8 7 -15 10 -15 6 0
-4 -8 -1 -17 7 -10 8 -30 21 -46 29 -15 7 -27 17 -27 22 0 4 -5 8 -11 8 -6 0
-25 11 -41 25 -16 14 -35 22 -40 19 -7 -4 -8 -2 -4 4 4 7 3 12 -2 12 -4 0 -19
10 -32 23 -14 12 -28 21 -32 20 -5 -2 -8 2 -8 7 0 6 -7 10 -16 10 -8 0 -12 5
-9 10 3 6 2 10 -2 10 -29 0 -261 232 -348 350 -15 19 -31 34 -36 32 -6 -1 -8
1 -5 6 2 4 -16 35 -40 68 -25 32 -54 75 -65 94 -10 19 -37 63 -59 98 -21 34
-34 60 -27 56 7 -4 4 2 -5 13 -10 11 -18 25 -18 31 0 7 -5 12 -11 12 -5 0 -7
5 -4 10 3 6 1 10 -6 10 -7 0 -9 3 -6 6 4 4 -3 20 -15 37 -12 17 -16 27 -10 23
7 -4 4 7 -8 26 -11 18 -20 41 -20 51 0 9 -4 17 -8 17 -4 0 -8 10 -9 22 -1 11
-7 24 -13 28 -7 4 -11 10 -10 14 3 12 -12 66 -18 66 -4 0 -8 10 -9 23 -1 12
-13 63 -27 112 -15 50 -28 106 -30 125 -2 19 -6 42 -9 50 -28 81 -45 492 -27
647 5 43 12 101 15 128 3 28 13 77 21 110 8 33 15 67 15 75 1 8 7 36 15 61 8
25 16 54 18 65 6 28 55 166 67 187 5 10 7 22 4 26 -2 5 2 14 10 21 8 7 12 16
9 21 -3 5 0 9 6 9 6 0 8 5 5 10 -3 6 -1 10 5 10 6 0 8 5 5 10 -3 6 1 17 9 26
9 8 16 24 16 35 0 10 5 19 11 19 5 0 8 4 5 9 -4 5 -2 11 3 13 5 1 11 10 13 18
2 8 10 21 18 28 11 10 11 11 1 6 -13 -7 26 55 42 67 5 3 7 9 5 12 -1 4 4 15
13 25 15 17 29 46 28 58 0 3 10 15 23 27 13 12 29 34 37 50 8 15 18 27 23 27
4 0 8 5 8 10 0 6 8 19 18 29 36 39 60 70 66 86 3 9 10 13 16 10 5 -3 10 -1 10
4 0 11 26 45 67 87 13 13 23 28 23 34 0 6 5 8 10 5 6 -3 13 1 16 9 3 9 10 13
15 10 5 -3 9 1 9 8 0 7 12 22 27 33 14 11 41 35 58 53 18 17 37 32 42 32 6 0
14 7 17 16 4 9 9 14 12 11 3 -3 18 7 33 21 16 15 38 34 51 42 12 8 41 30 64
47 22 18 46 33 52 33 6 0 17 7 25 16 12 14 102 65 114 64 3 0 15 9 27 20 12
11 28 20 37 20 8 0 23 8 34 18 15 12 18 13 12 2 -8 -13 -7 -13 11 0 10 8 22
20 26 25 4 6 8 7 8 2 0 -4 14 -1 30 8 17 9 30 13 30 10 0 -4 7 1 16 9 8 9 20
14 25 11 5 -4 9 -2 9 2 0 5 10 9 22 10 11 1 25 8 29 15 5 7 9 10 9 6 0 -4 26
2 58 13 78 28 266 76 326 84 27 3 53 8 56 10 4 2 42 7 86 10 43 3 80 8 83 10
7 7 468 -2 480 -9z"/>
<path d="M1130 2650 l0 -1360 75 0 75 0 0 1360 0 1360 -75 0 -75 0 0 -1360z"/>
<path d="M1460 3935 l0 -75 510 0 510 0 0 -1285 0 -1285 75 0 75 0 0 1285 0
1285 700 0 700 0 0 75 0 75 -1285 0 -1285 0 0 -75z"/>
<path d="M2830 2480 l0 -1190 600 0 600 0 0 75 0 75 -525 0 -525 0 0 1115 0
1115 -75 0 -75 0 0 -1190z"/>
</g>
</svg>
